<?xml version="1.0" standalone="no"?>
<!DOCTYPE svg PUBLIC "-//W3C//DTD SVG 20010904//EN"
 "http://www.w3.org/TR/2001/REC-SVG-20010904/DTD/svg10.dtd">
<svg version="1.0" xmlns="http://www.w3.org/2000/svg"
 width="30.000000pt" height="28.000000pt" viewBox="0 0 30.000000 28.000000"
 preserveAspectRatio="xMidYMid meet">

<g transform="translate(0.000000,28.000000) scale(0.100000,-0.100000)"
fill="#000000" stroke="none">
<path d="M36 143 c31 -115 30 -113 53 -113 15 0 22 14 36 65 10 36 22 62 26
58 4 -4 14 -33 21 -63 11 -43 19 -56 35 -58 14 -2 23 3 27 15 14 49 46 169 46
175 0 5 -9 8 -19 8 -15 0 -22 -12 -31 -52 -18 -74 -26 -87 -34 -52 -24 101
-27 105 -49 102 -17 -2 -24 -15 -37 -68 -18 -72 -23 -71 -40 13 -10 50 -14 57
-35 57 l-23 0 24 -87z"/>
</g>
</svg>
